<svg id="logo" xmlns="http://www.w3.org/2000/svg" viewBox="0 0 428.23 428.22"><defs><style>.cls-1{fill:#fff;}.cls-2{fill:#f16872;stroke:#f16872;stroke-miterlimit:10;stroke-width:10px;}.cls-3{fill:#191b46;}.cls-4{fill:#f04f30;}.cls-5{fill:#eb79aa;}</style></defs><title>logo</title><circle id="bg_circle" data-name="bg circle" class="cls-1" cx="214.11" cy="214.11" r="212.06"/><g id="circle"><path class="cls-2" d="M378.14,368.72A202,202,0,0,0,405.22,332h0l0,0,0,0h0A201.48,201.48,0,0,0,331.51,56.88h0l0,0,0,0h0A201.48,201.48,0,0,0,56.34,130.59h0l0,0,0,0h0a201.48,201.48,0,0,0,73.76,275.09h0a201.45,201.45,0,0,0,248.08-37.05h0Zm33.74-32.91v0l0,0.06a209.69,209.69,0,0,1-28.1,38,209.06,209.06,0,0,1-257.45,38.48h0l-0.06,0A209.09,209.09,0,0,1,49.68,126.84h0v0l0-.06A209.09,209.09,0,0,1,335.26,50.22h0l0.06,0A209.09,209.09,0,0,1,411.88,335.8h0Z" transform="translate(-16.67 -17.21)"/><path class="cls-2" d="M227.35,229.42l57.73-100-54.3-94.06L145.69,182.74h0L60.6,330.1H283.28l-55.93-96.88-1.1-1.9Zm89.76,63.34L295.54,330.1H401l-52.71-91.29-31.13,53.93v0Zm-27.7,32.67,21.08-36.51h0l33.34-57.75-28-48.43-26.38-45.68-54.42,94.26Zm116.86,12.35H296.53l25.84,44.75h0l14.25,24.68c-2.19,1.31-4.4,2.59-6.63,3.82l-14.25-24.67v0l-26.34-45.62-55.33,95.84c-2.94.05-5.88,0-8.82,0l57-98.76h-227q-2-3.38-4-6.84l87.77-152v0L227.3,26.08q3.48-.06,7,0l55.25,95.69L315.75,76.3v0L330,51.64c1.15,0.63,2.29,1.27,3.43,1.92s2.14,1.26,3.2,1.9L322.37,80.12h0L293.91,129.4l28.58,49.5,25.76,44.61,57.49-99.58q2.3,3.76,4.43,7.61l-57.51,99.61,54.93,95.14,16.7-29.4C419.9,310.58,416,321,408.54,334,407.8,335.24,407,336.51,406.26,337.78Z" transform="translate(-16.67 -17.21)"/></g><g id="colors"><polygon id="main3" class="cls-3" points="331.58 230.46 377.52 309.22 285.33 309.22 331.58 230.46"/><polygon class="cls-1" points="272.79 127.79 323 214.04 272.79 299.79 222.13 214.04 272.79 127.79"/><polygon id="main" class="cls-4" points="272.79 127.79 323 214.04 272.79 299.79 222.13 214.04 272.79 127.79"/><polygon id="main2" class="cls-5" points="214.11 26.13 264 111.13 205 213.79 260.33 309.22 50.33 309.22 214.11 26.13"/></g></svg>